<svg width="1440" height="1025" viewBox="0 0 1440 1025" fill="none" xmlns="http://www.w3.org/2000/svg">
<g clip-path="url(#clip0_182_251)">
<rect x="854" width="586" height="304" fill="#FD71FF"/>
<path d="M853.159 552.573C831.946 533.568 871.651 493.557 857.51 408.034H845V281H1514V456.047C1493.51 451.546 1450.47 445.244 1442.2 456.047C1431.87 469.551 1454.71 547.072 1449.82 566.077C1445.93 581.172 1418.27 593.584 1394.34 571.078C1370.41 548.572 1419.07 459.815 1414.47 435.042C1406.85 394.03 1364.43 382.027 1346.48 394.03C1328.53 406.034 1325.81 491.057 1317.11 517.064C1307.97 544.378 1280.71 548.736 1271.96 534.568C1260.54 516.063 1283.07 485.932 1287.19 453.046C1292.09 414.036 1254.01 418.537 1221.38 422.538C1188.75 426.539 1221.38 455.547 1221.38 472.552C1221.38 500.79 1206.15 512.562 1188.75 512.562C1171.34 512.562 1159.38 499.559 1173.52 472.552C1187.66 445.544 1177.45 422.538 1140.34 422.538C1093.02 422.538 1093.56 438.042 1106.62 474.052C1113.86 494.031 1056.9 500.059 1062.56 474.052C1068.54 446.545 1087.04 422.538 1070.18 401.532C1054.98 382.603 1013.07 398.032 996.749 434.041C980.432 470.051 1014.15 591.084 998.38 621.592C987.615 642.414 958.376 641.857 947.798 621.592C937.219 601.327 985.871 496.558 963.571 428.54C953.194 396.889 920.059 388.529 892.32 408.034C864.58 427.539 895.583 528.067 898.302 547.072C901.022 566.077 874.371 571.578 853.159 552.573Z" fill="#FFCC54"/>
<path d="M-12 0H867L1009 505.5L-12 633.5L-12 0Z" fill="url(#paint0_linear_182_251)"/>
<path d="M1440 1025L-4.5 805.028L-4.5 1025L1440 1025Z" fill="#007BE7"/>
<path d="M472.512 840.391C482 856 463.331 894.645 472.512 935C481.694 975.355 513.5 987 509.5 954C505.5 921 570 1025 570 1025L478.5 1025L-12.5 1025L-12.5 906.007C2.53608 909.067 28.5364 925.844 34.6041 918.5C42.1886 909.321 23.4182 840.15 34.6041 827.812C43.5 818 60.4357 812.513 78 827.812C95.5642 843.111 57.1754 903.446 60.5512 920.286C66.1398 948.165 97.2764 956.324 110.45 948.165C123.623 940.005 125.619 882.209 132.006 864.53C138.714 845.962 158.72 842.999 165.138 852.63C173.521 865.21 156.99 885.692 153.961 908.047C150.368 934.566 178.311 931.506 202.263 928.786C226.214 926.066 202.263 906.347 202.263 894.788C202.263 875.592 213.44 867.59 226.214 867.59C238.988 867.59 247.77 876.429 237.391 894.788C227.012 913.147 234.505 928.786 261.741 928.786C296.471 928.786 296.072 918.246 286.491 893.768C281.176 880.187 322.977 876.089 318.825 893.768C314.434 912.467 300.862 928.786 313.237 943.065C324.388 955.933 355.151 945.445 367.127 920.966C379.102 896.488 354.353 814.213 365.929 793.474C373.83 779.32 395.29 779.699 403.054 793.474C410.817 807.249 375.111 878.469 391.477 924.706C399.093 946.222 423.412 951.904 443.771 938.645C464.129 925.386 435.062 856.47 439.38 844.131C444.5 829.5 462.004 823.104 472.512 840.391Z" fill="#FD71FF"/>
<path d="M789.5 897L863.545 1025.25H715.455L789.5 897Z" fill="#FD71FF"/>
<path d="M933.5 897L1007.55 1025.25H859.455L933.5 897Z" fill="#FD71FF"/>
<path d="M1078.5 897L1152.55 1025.25H1004.45L1078.5 897Z" fill="#FD71FF"/>
<path d="M1222.5 897L1296.55 1025.25H1148.45L1222.5 897Z" fill="#FD71FF"/>
<path d="M1367.5 897L1441.55 1025.25H1293.45L1367.5 897Z" fill="#FD71FF"/>
<path d="M644.5 897L718.545 1025.25H570.455L644.5 897Z" fill="#FD71FF"/>
</g>
<defs>
<linearGradient id="paint0_linear_182_251" x1="477.75" y1="0" x2="477.75" y2="633.5" gradientUnits="userSpaceOnUse">
<stop stop-color="#007BE7"/>
</linearGradient>
<clipPath id="clip0_182_251">
<rect width="1440" height="1025" fill="white"/>
</clipPath>
</defs>
</svg>
