<svg width="393" height="848" viewBox="0 0 393 848" fill="none" xmlns="http://www.w3.org/2000/svg">
<g clip-path="url(#clip0_182_489)">
<path d="M55 524.585L77.5205 848.5H579.477L605 348L55 524.585Z" fill="#FD71FF"/>
<path d="M-92.8415 483.573C-114.054 464.568 -74.3488 424.557 -88.4902 339.034H-101V212H568V387.047C547.513 382.546 504.472 376.244 496.205 387.047C485.871 400.551 508.715 478.072 503.82 497.077C499.932 512.172 472.273 524.584 448.341 502.078C424.41 479.572 473.066 390.815 468.466 366.042C460.851 325.03 418.427 313.027 400.478 325.03C382.529 337.034 379.81 422.057 371.107 448.064C361.968 475.378 334.708 479.736 325.963 465.568C314.542 447.063 337.066 416.932 341.193 384.046C346.088 345.036 308.015 349.537 275.38 353.538C242.746 357.539 275.38 386.547 275.38 403.552C275.38 431.79 260.151 443.562 242.746 443.562C225.341 443.562 213.376 430.559 227.517 403.552C241.659 376.544 231.45 353.538 194.339 353.538C147.02 353.538 147.563 369.042 160.617 405.052C167.859 425.031 110.904 431.059 116.561 405.052C122.544 377.545 141.037 353.538 124.176 332.532C108.981 313.603 67.0659 329.032 50.7488 365.041C34.4317 401.051 68.1537 522.084 52.3805 552.592C41.6153 573.414 12.3758 572.857 1.79756 552.592C-8.78072 532.327 39.8707 427.558 17.5707 359.54C7.19385 327.889 -25.9415 319.529 -53.6805 339.034C-81.4195 358.539 -50.4171 459.067 -47.6976 478.072C-44.978 497.077 -71.6293 502.578 -92.8415 483.573Z" fill="#FFCC54"/>
<path d="M-314 0H565L714 224.5L-307 352.5L-314 0Z" fill="#007BE7"/>
</g>
<defs>
<clipPath id="clip0_182_489">
<rect width="393" height="848" fill="white"/>
</clipPath>
</defs>
</svg>
